<svg width="17" height="32" viewBox="0 0 17 32" fill="none" xmlns="http://www.w3.org/2000/svg">
<path d="M1.39053 29.724C1.26318 29.847 1.1616 29.9941 1.09172 30.1568C1.02185 30.3194 0.985063 30.4944 0.983525 30.6714C0.981987 30.8485 1.01572 31.024 1.08276 31.1879C1.1498 31.3518 1.24881 31.5006 1.374 31.6258C1.49919 31.751 1.64806 31.85 1.81192 31.9171C1.97578 31.9841 2.15136 32.0178 2.32839 32.0163C2.50543 32.0148 2.68039 31.978 2.84306 31.9081C3.00574 31.8382 3.15286 31.7367 3.27586 31.6093L14.1719 20.7133C15.42 19.4623 16.121 17.7672 16.121 16C16.121 14.2328 15.42 12.5377 14.1719 11.2866L3.27586 0.39064C3.02439 0.147762 2.68759 0.0133699 2.33799 0.0164078C1.98839 0.0194457 1.65398 0.159671 1.40677 0.406882C1.15956 0.654093 1.01933 0.988509 1.01629 1.3381C1.01326 1.6877 1.14765 2.0245 1.39053 2.27597L12.2865 13.172C13.0364 13.9221 13.4577 14.9393 13.4577 16C13.4577 17.0606 13.0364 18.0779 12.2865 18.828L1.39053 29.724Z" fill="#2A6CEA"/>
</svg>
